<svg fill="#000000" xmlns="http://www.w3.org/2000/svg" xmlns:xlink="http://www.w3.org/1999/xlink" version="1.1" x="0px" y="0px" viewBox="0 0 100 100" style="enable-background:new 0 0 100 100;" xml:space="preserve"><style type="text/css">
	.st0{clip-path:url(#f);}
	.st1{clip-path:url(#e);}
	.st2{clip-path:url(#d);}
</style><g><g><g><g><polygon points="45.7,69.2 30.9,84 45.7,98.8 60.5,84     "/></g><g><defs><rect id="c" x="35.2" y="73.5" transform="matrix(0.7071 -0.7071 0.7071 0.7071 -46.0117 56.9178)" width="20.9" height="20.9"/></defs><clipPath id="f"><use xlink:href="#c" style="" overflow="visible"/></clipPath><polygon class="st0" points="19.3,43 4.6,57.7 72,125.1 86.7,110.4     "/></g></g><g><g><polygon points="62.5,52.4 47.7,67.2 62.5,82 77.3,67.2     "/></g></g><g><g><polygon points="79.4,35.5 64.6,50.3 79.4,65.1 94.2,50.3     "/></g><g><defs><rect id="b" x="68.9" y="39.8" transform="matrix(0.7071 -0.7071 0.7071 0.7071 -12.3118 70.8768)" width="20.9" height="20.9"/></defs><clipPath id="e"><use xlink:href="#b" style="" overflow="visible"/></clipPath><polygon class="st1" points="53,9.2 38.3,24 105.7,91.4 120.4,76.6     "/></g></g></g><g><g><g><polygon points="45.5,35.4 30.7,50.2 45.5,65 60.3,50.2     "/></g></g><g><g><polygon points="62.4,18.5 47.6,33.3 62.4,48.1 77.2,33.3     "/></g></g></g><g><g><g><rect x="35" y="6" transform="matrix(-0.7071 0.7071 -0.7071 -0.7071 89.2454 -4.0341)" width="20.9" height="20.9"/></g><g><defs><rect id="a" x="35" y="6" transform="matrix(-0.7071 0.7071 -0.7071 -0.7071 89.2454 -4.0341)" width="20.9" height="20.9"/></defs><clipPath id="d"><use xlink:href="#a" style="" overflow="visible"/></clipPath><polygon class="st2" points="19.1,-24.6 4.4,-9.9 71.8,57.5 86.5,42.8     "/></g></g></g></g></svg>